0
SECTION
2
HEADER
9
$INSUNITS
70
4
9
$ACADVER
1
AC1014
9
$HANDSEED
5
FFFF
0
ENDSEC
0
SECTION
2
TABLES
0
TABLE
2
VPORT
5
8
100
AcDbSymbolTable
0
ENDTAB
0
TABLE
2
LTYPE
5
5
100
AcDbSymbolTable
0
LTYPE
5
14
100
AcDbSymbolTableRecord
100
AcDbLinetypeTableRecord
2
BYBLOCK
70
0
0
LTYPE
5
15
100
AcDbSymbolTableRecord
100
AcDbLinetypeTableRecord
2
BYLAYER
70
0
0
LTYPE
5
16
100
AcDbSymbolTableRecord
100
AcDbLinetypeTableRecord
2
DASHED
70
0
3
Dashed __ __ __ __ __ __ __ __ __ __ __ __ __ _
72
65
73
2
40
0.75
49
0.5
74
0
49
-0.25
74
0
0
ENDTAB
0
TABLE
2
LAYER
5
2
100
AcDbSymbolTable
70
2
0
LAYER
5
50
100
AcDbSymbolTableRecord
100
AcDbLayerTableRecord
2
0
70
0
62
7
6
CONTINUOUS
0
ENDTAB
0
TABLE
2
STYLE
5
3
100
AcDbSymbolTable
70
1
0
STYLE
5
11
100
AcDbSymbolTableRecord
100
AcDbTextStyleTableRecord
2
STANDARD
70
0
0
ENDTAB
0
TABLE
2
VIEW
5
6
100
AcDbSymbolTable
70
0
0
ENDTAB
0
TABLE
2
UCS
5
7
100
AcDbSymbolTable
70
0
0
ENDTAB
0
TABLE
2
APPID
5
9
100
AcDbSymbolTable
70
2
0
APPID
5
12
100
AcDbSymbolTableRecord
100
AcDbRegAppTableRecord
2
ACAD
70
0
0
ENDTAB
0
TABLE
2
DIMSTYLE
5
A
100
AcDbSymbolTable
70
1
0
ENDTAB
0
TABLE
2
BLOCK_RECORD
5
1
100
AcDbSymbolTable
70
1
0
BLOCK_RECORD
5
1F
100
AcDbSymbolTableRecord
100
AcDbBlockTableRecord
2
*MODEL_SPACE
0
BLOCK_RECORD
5
1B
100
AcDbSymbolTableRecord
100
AcDbBlockTableRecord
2
*PAPER_SPACE
0
ENDTAB
0
ENDSEC
0
SECTION
2
BLOCKS
0
BLOCK
5
20
100
AcDbEntity
100
AcDbBlockBegin
2
*MODEL_SPACE
0
ENDBLK
5
21
100
AcDbEntity
100
AcDbBlockEnd
0
BLOCK
5
1C
100
AcDbEntity
100
AcDbBlockBegin
2
*PAPER_SPACE
0
ENDBLK
5
1D
100
AcDbEntity
100
AcDbBlockEnd
0
ENDSEC
0
SECTION
2
ENTITIES
0
LWPOLYLINE
5
100
100
AcDbEntity
8
0
100
AcDbPolyline
90
27
70
1
43
0.0
10
-919.93053788129362
20
-123.31149737846732
42
0.06731645721237961
10
-919.41188088129275
20
-123.4471613784678
10
-789.95844288129229
20
-139.24114337846396
10
-770.67972088129238
20
-136.73642737846399
10
-770.62285388129226
20
-136.72986537846396
10
-743.16935388129218
20
-133.95939737846396
42
0.38486304935823307
10
-741.37016488129257
20
-131.97083137846391
10
-741.36141788129225
20
-118.78743137846399
42
-0.41401915258979466
10
-733.36141988129214
20
-110.79273937846908
10
-712.61133388129224
20
-110.79273937846396
42
0.41422829073162754
10
-710.61133388129269
20
-108.79263837846393
10
-710.6232498812924
20
-15.715258378463961
42
0.19904148286706852
10
-710.91666888132079
20
-15.00775337849246
10
-729.70625088129225
20
3.7538836215360227
42
0.4142319958390378
10
-732.5347648812899
20
3.7519746215338996
10
-744.54949588128272
20
-8.2797383784736951
42
-0.13241500724981242
10
-746.3534388812875
20
-9.3194753784820001
10
-759.9445138812805
20
-12.928654378508194
42
-0.065001755199502201
10
-760.97153488129243
20
-13.062646378510159
10
-846.96794688129228
20
-13.054403378503928
42
-0.067175492374048865
10
-847.49812488130203
20
-12.982796378499895
10
-931.2116808812923
20
10.041375621536037
42
0.41613074337030215
10
-933.6738788812645
20
8.6307336215285169
10
-962.99489988129221
20
-100.77099237846397
42
0.34951164805873003
10
-962.00016888129312
20
-103.05562337846553
10
-937.29742788129226
20
-116.15707837846398
10
-937.1212088812922
20
-116.23981337846396
0
CIRCLE
5
101
100
AcDbEntity
8
0
100
AcDbCircle
10
-732.57133388129228
20
-26.892739378463961
30
0
40
1.05
210
0
220
-0
230
1
0
CIRCLE
5
102
100
AcDbEntity
8
0
100
AcDbCircle
10
-818.35133388129225
20
-19.102739378463998
30
0
40
1.05
210
0
220
-0
230
1
0
CIRCLE
5
103
100
AcDbEntity
8
0
100
AcDbCircle
10
-760.93633388129228
20
-55.637739378463976
30
0
40
1.05
210
0
220
-0
230
1
0
CIRCLE
5
104
100
AcDbEntity
8
0
100
AcDbCircle
10
-857.2913338812923
20
-13.852739378463976
30
0
40
1.05
210
0
220
-0
230
1
0
CIRCLE
5
105
100
AcDbEntity
8
0
100
AcDbCircle
10
-920.91133388129219
20
-15.03773937846395
30
0
40
1.05
210
0
220
-0
230
1
0
CIRCLE
5
106
100
AcDbEntity
8
0
100
AcDbCircle
10
-884.24133388129235
20
-29.352739378463983
30
0
40
1.05
210
0
220
-0
230
1
0
CIRCLE
5
107
100
AcDbEntity
8
0
100
AcDbCircle
10
-837.35133388129225
20
-52.642739378463972
30
0
40
1.05
210
0
220
-0
230
1
0
CIRCLE
5
108
100
AcDbEntity
8
0
100
AcDbCircle
10
-865.10133388129225
20
-71.042739378463978
30
0
40
1.05
210
0
220
-0
230
1
0
CIRCLE
5
109
100
AcDbEntity
8
0
100
AcDbCircle
10
-713.08133388129227
20
-96.472739378463984
30
0
40
1.05
210
0
220
-0
230
1
0
CIRCLE
5
110
100
AcDbEntity
8
0
100
AcDbCircle
10
-761.98633388129224
20
-94.987739378463971
30
0
40
1.05
210
0
220
-0
230
1
0
CIRCLE
5
111
100
AcDbEntity
8
0
100
AcDbCircle
10
-799.61133388129224
20
-132.76273937846398
30
0
40
1.05
210
0
220
-0
230
1
0
CIRCLE
5
112
100
AcDbEntity
8
0
100
AcDbCircle
10
-837.32133388129228
20
-90.812739378463974
30
0
40
1.05
210
-0
220
0
230
1
0
CIRCLE
5
113
100
AcDbEntity
8
0
100
AcDbCircle
10
-939.31133388129228
20
-90.662739378463968
30
0
40
1.05
210
0
220
-0
230
1
0
CIRCLE
5
114
100
AcDbEntity
8
0
100
AcDbCircle
10
-872.47133388129225
20
-125.68273937846398
30
0
40
1.05
210
0
220
-0
230
1
0
CIRCLE
5
115
100
AcDbEntity
8
0
100
AcDbCircle
10
-904.91133388129231
20
-103.61273937846398
30
0
40
1.05
210
0
220
-0
230
1
0
ENDSEC
0
SECTION
2
OBJECTS
0
DICTIONARY
5
C
100
AcDbDictionary
3
ACAD_GROUP
350
D
3
ACAD_MLINESTYLE
350
17
0
DICTIONARY
5
D
100
AcDbDictionary
0
DICTIONARY
5
1A
330
C
100
AcDbDictionary
0
DICTIONARY
5
17
100
AcDbDictionary
0
ENDSEC
0
EOF
