0
SECTION
2
HEADER
9
$INSUNITS
70
4
9
$ACADVER
1
AC1014
9
$HANDSEED
5
FFFF
0
ENDSEC
0
SECTION
2
TABLES
0
TABLE
2
VPORT
5
8
100
AcDbSymbolTable
0
ENDTAB
0
TABLE
2
LTYPE
5
5
100
AcDbSymbolTable
0
LTYPE
5
14
100
AcDbSymbolTableRecord
100
AcDbLinetypeTableRecord
2
BYBLOCK
70
0
0
LTYPE
5
15
100
AcDbSymbolTableRecord
100
AcDbLinetypeTableRecord
2
BYLAYER
70
0
0
LTYPE
5
16
100
AcDbSymbolTableRecord
100
AcDbLinetypeTableRecord
2
DASHED
70
0
3
Dashed __ __ __ __ __ __ __ __ __ __ __ __ __ _
72
65
73
2
40
0.75
49
0.5
74
0
49
-0.25
74
0
0
ENDTAB
0
TABLE
2
LAYER
5
2
100
AcDbSymbolTable
70
2
0
LAYER
5
50
100
AcDbSymbolTableRecord
100
AcDbLayerTableRecord
2
0
70
0
62
7
6
CONTINUOUS
0
ENDTAB
0
TABLE
2
STYLE
5
3
100
AcDbSymbolTable
70
1
0
STYLE
5
11
100
AcDbSymbolTableRecord
100
AcDbTextStyleTableRecord
2
STANDARD
70
0
0
ENDTAB
0
TABLE
2
VIEW
5
6
100
AcDbSymbolTable
70
0
0
ENDTAB
0
TABLE
2
UCS
5
7
100
AcDbSymbolTable
70
0
0
ENDTAB
0
TABLE
2
APPID
5
9
100
AcDbSymbolTable
70
2
0
APPID
5
12
100
AcDbSymbolTableRecord
100
AcDbRegAppTableRecord
2
ACAD
70
0
0
ENDTAB
0
TABLE
2
DIMSTYLE
5
A
100
AcDbSymbolTable
70
1
0
ENDTAB
0
TABLE
2
BLOCK_RECORD
5
1
100
AcDbSymbolTable
70
1
0
BLOCK_RECORD
5
1F
100
AcDbSymbolTableRecord
100
AcDbBlockTableRecord
2
*MODEL_SPACE
0
BLOCK_RECORD
5
1B
100
AcDbSymbolTableRecord
100
AcDbBlockTableRecord
2
*PAPER_SPACE
0
ENDTAB
0
ENDSEC
0
SECTION
2
BLOCKS
0
BLOCK
5
20
100
AcDbEntity
100
AcDbBlockBegin
2
*MODEL_SPACE
0
ENDBLK
5
21
100
AcDbEntity
100
AcDbBlockEnd
0
BLOCK
5
1C
100
AcDbEntity
100
AcDbBlockBegin
2
*PAPER_SPACE
0
ENDBLK
5
1D
100
AcDbEntity
100
AcDbBlockEnd
0
ENDSEC
0
SECTION
2
ENTITIES
0
LWPOLYLINE
5
100
100
AcDbEntity
8
0
100
AcDbPolyline
90
8
70
1
43
0.0
10
-935.02050234583726
20
-163.28934343554801
42
0.41421358249214008
10
-935.63287691616847
20
-163.6428980819737
10
-937.37990465301777
20
-170.16289600128152
42
0.41421355818552763
10
-937.02635117059515
20
-170.77526851703828
10
-924.46931549976466
20
-174.13991542883761
42
0.41421353054201393
10
-923.85694353229837
20
-173.78636231317518
10
-922.10991494795223
20
-167.26636443816528
42
0.41421357827278205
10
-922.46346924174827
20
-166.65399039164942
0
LWPOLYLINE
5
101
100
AcDbEntity
8
0
100
AcDbPolyline
90
8
70
1
43
0.0
10
-941.18361650082602
20
-186.29045587737181
42
0.41421346526779662
10
-941.79600822677457
20
-186.64402024894514
10
-943.54270953330672
20
-193.16278895831064
42
0.4141863883050389
10
-943.1891679593399
20
-193.77520703984806
10
-930.63250290974793
20
-197.14100877435132
42
0.41424087320482622
10
-930.02006763254849
20
-196.78745708363073
10
-928.27303181677735
20
-190.26742783945639
42
0.41421352323946259
10
-928.62655300044207
20
-189.65511124607289
0
LWPOLYLINE
5
102
100
AcDbEntity
8
0
100
AcDbPolyline
90
8
70
1
43
0.0
10
-944.89050234583715
20
-200.07934343554797
42
0.41421358249214008
10
-945.50287691616847
20
-200.43289808197369
10
-947.24990465301767
20
-206.95289600128154
42
0.41421355818551686
10
-946.89635117059515
20
-207.56526851703825
10
-934.33931549976501
20
-210.92991542883749
42
0.41421353054201826
10
-933.72694353229826
20
-210.57636231317517
10
-931.97991494795247
20
-204.05636443816516
42
0.41421357827274718
10
-932.3334692417485
20
-203.44399039164932
0
LWPOLYLINE
5
103
100
AcDbEntity
8
0
100
AcDbPolyline
90
8
70
1
43
0.0
10
-951.05361650082602
20
-223.0804558773718
10
-938.4965530004423
20
-226.44511124607274
42
-0.4142135232394773
10
-938.14303181677758
20
-227.0574278394563
10
-939.89006763254849
20
-233.57745708363072
42
-0.41424087320482622
10
-940.50250290974805
20
-233.93100877435131
10
-953.0591679593399
20
-230.56520703984813
42
-0.41418638830505361
10
-953.41270953330661
20
-229.95278895831061
10
-951.66600822677447
20
-223.43402024894513
42
-0.41421346526781672
0
LWPOLYLINE
5
104
100
AcDbEntity
8
0
100
AcDbPolyline
90
4
70
1
43
0.0
10
-727.63653000751958
20
-153.35125150757253
10
-717.73703500751958
20
-163.2507465075725
10
-727.63653000751958
20
-173.15024150757253
10
-737.53602500751958
20
-163.2507465075725
0
CIRCLE
5
105
100
AcDbEntity
8
0
100
AcDbCircle
10
-732.57246000751957
20
-176.89050250757251
30
0
40
1.05
210
0
220
-0
230
1
0
LWPOLYLINE
5
106
100
AcDbEntity
8
0
100
AcDbPolyline
90
4
70
1
43
0.0
10
-745.46699300751948
20
-163.48851850757254
10
-738.4669930075197
20
-175.61287450757251
10
-750.59134900751951
20
-182.61287450757251
10
-757.59134900751963
20
-170.48851850757251
0
LWPOLYLINE
5
107
100
AcDbEntity
8
0
100
AcDbPolyline
90
4
70
1
43
0.0
10
-777.66246000751948
20
-171.48400250757251
10
-763.6624600075196
20
-171.48400250757251
10
-763.6624600075196
20
-185.48400250757254
10
-777.66246000751948
20
-185.48400250757254
0
CIRCLE
5
108
100
AcDbEntity
8
0
100
AcDbCircle
10
-818.35246000751965
20
-169.10050250757254
30
0
40
1.05
210
0
220
-0
230
1
0
LWPOLYLINE
5
109
100
AcDbEntity
8
0
100
AcDbPolyline
90
4
70
1
43
0.0
10
-815.76746000751973
20
-171.48750250757251
10
-801.76746000751962
20
-171.48750250757251
10
-801.76746000751962
20
-185.48750250757251
10
-815.76746000751973
20
-185.48750250757251
0
LWPOLYLINE
5
110
100
AcDbEntity
8
0
100
AcDbPolyline
90
4
70
1
43
0.0
10
-739.4224600075197
20
-184.46250250757254
10
-723.82246000751957
20
-184.46250250757254
10
-723.82246000751957
20
-197.46250250757254
10
-739.4224600075197
20
-197.46250250757254
0
LWPOLYLINE
5
111
100
AcDbEntity
8
0
100
AcDbPolyline
90
4
70
1
43
0.0
10
-758.61246000751964
20
-188.62900250757249
10
-744.61246000751976
20
-188.62900250757249
10
-744.61246000751976
20
-202.62900250757252
10
-758.61246000751964
20
-202.62900250757252
0
LWPOLYLINE
5
112
100
AcDbEntity
8
0
100
AcDbPolyline
90
4
70
1
43
0.0
10
-777.66246000751948
20
-190.5340025075725
10
-763.6624600075196
20
-190.5340025075725
10
-763.6624600075196
20
-204.53400250757252
10
-777.66246000751948
20
-204.53400250757252
0
CIRCLE
5
113
100
AcDbEntity
8
0
100
AcDbCircle
10
-760.93746000751958
20
-205.63550250757254
30
0
40
1.05
210
0
220
-0
230
1
0
LWPOLYLINE
5
114
100
AcDbEntity
8
0
100
AcDbPolyline
90
4
70
1
43
0.0
10
-796.71246000751944
20
-173.96050250757253
10
-782.71246000751955
20
-173.96050250757253
10
-782.71246000751955
20
-187.96050250757253
10
-796.71246000751944
20
-187.96050250757253
0
LWPOLYLINE
5
115
100
AcDbEntity
8
0
100
AcDbPolyline
90
4
70
1
43
0.0
10
-834.81746000751968
20
-186.15750250757253
10
-820.81746000751968
20
-186.15750250757253
10
-820.81746000751968
20
-200.1575025075725
10
-834.81746000751968
20
-200.1575025075725
0
LWPOLYLINE
5
116
100
AcDbEntity
8
0
100
AcDbPolyline
90
4
70
1
43
0.0
10
-796.71246000751944
20
-193.01050250757254
10
-782.71246000751955
20
-193.01050250757254
10
-782.71246000751955
20
-207.01050250757254
10
-796.71246000751944
20
-207.01050250757254
0
LWPOLYLINE
5
117
100
AcDbEntity
8
0
100
AcDbPolyline
90
4
70
1
43
0.0
10
-815.76246000751951
20
-190.5340025075725
10
-801.76246000751962
20
-190.5340025075725
10
-801.76246000751962
20
-204.53400250757252
10
-815.76246000751951
20
-204.53400250757252
0
CIRCLE
5
118
100
AcDbEntity
8
0
100
AcDbCircle
10
-837.35246000751977
20
-202.64050250757251
30
0
40
1.05
210
0
220
-0
230
1
0
LWPOLYLINE
5
119
100
AcDbEntity
8
0
100
AcDbPolyline
90
4
70
1
43
0.0
10
-834.81746000751968
20
-205.20750250757254
10
-820.81746000751968
20
-205.20750250757254
10
-820.81746000751968
20
-219.20750250757251
10
-834.81746000751968
20
-219.20750250757251
0
CIRCLE
5
120
100
AcDbEntity
8
0
100
AcDbCircle
10
-857.29246000751971
20
-163.85050250757251
30
0
40
1.05
210
0
220
-0
230
1
0
LWPOLYLINE
5
121
100
AcDbEntity
8
0
100
AcDbPolyline
90
4
70
1
43
0.0
10
-896.31957300751969
20
-160.25783250757252
10
-882.79661200751957
20
-163.88129950757249
10
-886.42007900751969
20
-177.40426050757253
10
-899.94304000751958
20
-173.7807935075725
0
LWPOLYLINE
5
122
100
AcDbEntity
8
0
100
AcDbPolyline
90
4
70
1
43
0.0
10
-877.27772100751963
20
-162.79621950757249
10
-863.75476000751962
20
-166.41968650757252
10
-867.37822700751963
20
-179.94264750757253
10
-880.90118800751952
20
-176.31918050757253
0
LWPOLYLINE
5
123
100
AcDbEntity
8
0
100
AcDbPolyline
90
4
70
1
43
0.0
10
-931.34651200751955
20
-143.78409650757251
10
-917.82355100751965
20
-147.40756350757252
10
-921.44701800751955
20
-160.93052450757253
10
-934.96997900751944
20
-157.30705750757252
0
LWPOLYLINE
5
124
100
AcDbEntity
8
0
100
AcDbPolyline
90
4
70
1
43
0.0
10
-914.07689600751951
20
-152.93270650757253
10
-900.55393500751961
20
-156.55617350757254
10
-904.1774020075195
20
-170.07913450757252
10
-917.70036300751963
20
-166.45566750757254
0
CIRCLE
5
125
100
AcDbEntity
8
0
100
AcDbCircle
10
-920.91246000751971
20
-165.03550250757252
30
0
40
1.05
210
0
220
-0
230
1
0
LWPOLYLINE
5
126
100
AcDbEntity
8
0
100
AcDbPolyline
90
4
70
1
43
0.0
10
-853.85746000751965
20
-186.15750250757253
10
-839.85746000751965
20
-186.15750250757253
10
-839.85746000751965
20
-200.1575025075725
10
-853.85746000751965
20
-200.1575025075725
0
CIRCLE
5
127
100
AcDbEntity
8
0
100
AcDbCircle
10
-884.24246000751964
20
-179.35050250757254
30
0
40
1.05
210
0
220
-0
230
1
0
LWPOLYLINE
5
128
100
AcDbEntity
8
0
100
AcDbPolyline
90
4
70
1
43
0.0
10
-901.25007600751951
20
-178.65871950757253
10
-887.72711500751961
20
-182.28218650757253
10
-891.35058200751951
20
-195.80514750757254
10
-904.87354300751963
20
-192.18168050757254
0
LWPOLYLINE
5
129
100
AcDbEntity
8
0
100
AcDbPolyline
90
4
70
1
43
0.0
10
-882.20822400751956
20
-181.19710650757253
10
-868.68526300751967
20
-184.82057350757253
10
-872.30873000751956
20
-198.34353450757254
10
-885.83169100751957
20
-194.72006750757254
0
LWPOLYLINE
5
130
100
AcDbEntity
8
0
100
AcDbPolyline
90
4
70
1
43
0.0
10
-853.86246000751953
20
-205.20250350757252
10
-839.86246000751964
20
-205.20250350757252
10
-839.86246000751964
20
-219.20250350757249
10
-853.86246000751953
20
-219.20250350757249
0
LWPOLYLINE
5
131
100
AcDbEntity
8
0
100
AcDbPolyline
90
4
70
1
43
0.0
10
-887.13872600751961
20
-199.59799350757251
10
-873.61576500751971
20
-203.22146050757252
10
-877.2392320075196
20
-216.7444215075725
10
-890.76219300751973
20
-213.12095450757252
0
LWPOLYLINE
5
132
100
AcDbEntity
8
0
100
AcDbPolyline
90
4
70
1
43
0.0
10
-919.00739900751978
20
-171.33359350757249
10
-905.48443800751954
20
-174.95706050757252
10
-909.10790500751978
20
-188.48002150757253
10
-922.63086600751967
20
-184.8565545075725
0
LWPOLYLINE
5
133
100
AcDbEntity
8
0
100
AcDbPolyline
90
4
70
1
43
0.0
10
-938.74195400751978
20
-171.38607450757252
10
-925.21899300751954
20
-175.00954150757252
10
-928.84246000751978
20
-188.53250250757253
10
-942.36542100751967
20
-184.90903550757253
0
LWPOLYLINE
5
134
100
AcDbEntity
8
0
100
AcDbPolyline
90
4
70
1
43
0.0
10
-923.94705500751968
20
-189.72998450757251
10
-910.42409400751944
20
-193.35345150757257
10
-914.04756100751968
20
-206.87641250757252
10
-927.57052200751957
20
-203.25294550757249
0
LWPOLYLINE
5
135
100
AcDbEntity
8
0
100
AcDbPolyline
90
4
70
1
43
0.0
10
-906.18739900751962
20
-197.05359350757254
10
-892.66443800751972
20
-200.67706050757252
10
-896.28790500751961
20
-214.20002150757253
10
-909.81086600751951
20
-210.57655450757252
0
LWPOLYLINE
5
136
100
AcDbEntity
8
0
100
AcDbPolyline
90
4
70
1
43
0.0
10
-758.61246000751964
20
-207.67900250757251
10
-744.61246000751976
20
-207.67900250757251
10
-744.61246000751976
20
-221.67900250757253
10
-758.61246000751964
20
-221.67900250757253
0
LWPOLYLINE
5
137
100
AcDbEntity
8
0
100
AcDbPolyline
90
4
70
1
43
0.0
10
-777.66246000751948
20
-209.58400250757251
10
-763.6624600075196
20
-209.58400250757251
10
-763.6624600075196
20
-223.58400250757254
10
-777.66246000751948
20
-223.58400250757254
0
LWPOLYLINE
5
138
100
AcDbEntity
8
0
100
AcDbPolyline
90
4
70
1
43
0.0
10
-758.61246000751964
20
-226.72900250757252
10
-744.61246000751976
20
-226.72900250757252
10
-744.61246000751976
20
-240.72900250757249
10
-758.61246000751964
20
-240.72900250757249
0
LWPOLYLINE
5
139
100
AcDbEntity
8
0
100
AcDbPolyline
90
4
70
1
43
0.0
10
-777.66246000751948
20
-228.63400250757252
10
-763.6624600075196
20
-228.63400250757252
10
-763.6624600075196
20
-242.63400250757252
10
-777.66246000751948
20
-242.63400250757252
0
CIRCLE
5
140
100
AcDbEntity
8
0
100
AcDbCircle
10
-761.98746000751953
20
-244.98550250757256
30
0
40
1.05
210
0
220
-0
230
1
0
LWPOLYLINE
5
141
100
AcDbEntity
8
0
100
AcDbPolyline
90
4
70
1
43
0.0
10
-796.71246000751944
20
-212.06050250757249
10
-782.71246000751955
20
-212.06050250757249
10
-782.71246000751955
20
-226.06050250757252
10
-796.71246000751944
20
-226.06050250757252
0
LWPOLYLINE
5
142
100
AcDbEntity
8
0
100
AcDbPolyline
90
4
70
1
43
0.0
10
-815.76246000751951
20
-209.58400250757251
10
-801.76246000751962
20
-209.58400250757251
10
-801.76246000751962
20
-223.58400250757254
10
-815.76246000751951
20
-223.58400250757254
0
LWPOLYLINE
5
143
100
AcDbEntity
8
0
100
AcDbPolyline
90
4
70
1
43
0.0
10
-834.81246000751958
20
-224.25250350757253
10
-820.81246000751958
20
-224.25250350757253
10
-820.81246000751958
20
-238.2525035075725
10
-834.81246000751958
20
-238.2525035075725
0
LWPOLYLINE
5
144
100
AcDbEntity
8
0
100
AcDbPolyline
90
4
70
1
43
0.0
10
-796.71246000751944
20
-231.11050250757251
10
-782.71246000751955
20
-231.11050250757251
10
-782.71246000751955
20
-245.11050250757251
10
-796.71246000751944
20
-245.11050250757251
0
LWPOLYLINE
5
145
100
AcDbEntity
8
0
100
AcDbPolyline
90
4
70
1
43
0.0
10
-815.76246000751951
20
-228.63400250757252
10
-801.76246000751962
20
-228.63400250757252
10
-801.76246000751962
20
-242.63400250757252
10
-815.76246000751951
20
-242.63400250757252
0
CIRCLE
5
146
100
AcDbEntity
8
0
100
AcDbCircle
10
-837.32246000751957
20
-240.81050250757249
30
0
40
1.05
210
-0
220
0
230
1
0
LWPOLYLINE
5
147
100
AcDbEntity
8
0
100
AcDbPolyline
90
4
70
1
43
0.0
10
-758.61246000751964
20
-245.77900250757253
10
-744.61246000751976
20
-245.77900250757253
10
-744.61246000751976
20
-259.7790025075725
10
-758.61246000751964
20
-259.7790025075725
0
LWPOLYLINE
5
148
100
AcDbEntity
8
0
100
AcDbPolyline
90
4
70
1
43
0.0
10
-777.66246000751948
20
-247.68400250757253
10
-763.6624600075196
20
-247.68400250757253
10
-763.6624600075196
20
-261.68400250757253
10
-777.66246000751948
20
-261.68400250757253
0
LWPOLYLINE
5
149
100
AcDbEntity
8
0
100
AcDbPolyline
90
4
70
1
43
0.0
10
-758.60746000751965
20
-264.8175025075725
10
-744.60746000751953
20
-264.8175025075725
10
-744.60746000751953
20
-278.81750250757256
10
-758.60746000751965
20
-278.81750250757256
0
LWPOLYLINE
5
150
100
AcDbEntity
8
0
100
AcDbPolyline
90
4
70
1
43
0.0
10
-777.66246000751948
20
-266.73400250757254
10
-763.6624600075196
20
-266.73400250757254
10
-763.6624600075196
20
-280.73400250757254
10
-777.66246000751948
20
-280.73400250757254
0
LWPOLYLINE
5
151
100
AcDbEntity
8
0
100
AcDbPolyline
90
4
70
1
43
0.0
10
-796.71246000751944
20
-250.16050250757252
10
-782.71246000751955
20
-250.16050250757252
10
-782.71246000751955
20
-264.16050250757252
10
-796.71246000751944
20
-264.16050250757252
0
LWPOLYLINE
5
152
100
AcDbEntity
8
0
100
AcDbPolyline
90
4
70
1
43
0.0
10
-815.76246000751951
20
-247.68400250757253
10
-801.76246000751962
20
-247.68400250757253
10
-801.76246000751962
20
-261.68400250757253
10
-815.76246000751951
20
-261.68400250757253
0
LWPOLYLINE
5
153
100
AcDbEntity
8
0
100
AcDbPolyline
90
4
70
1
43
0.0
10
-834.81246000751958
20
-243.30250350757254
10
-820.81246000751958
20
-243.30250350757254
10
-820.81246000751958
20
-257.30250350757251
10
-834.81246000751958
20
-257.30250350757251
0
LWPOLYLINE
5
154
100
AcDbEntity
8
0
100
AcDbPolyline
90
4
70
1
43
0.0
10
-796.70746000751956
20
-269.19750250757255
10
-782.70746000751956
20
-269.19750250757255
10
-782.70746000751956
20
-283.19750250757249
10
-796.70746000751956
20
-283.19750250757249
0
CIRCLE
5
155
100
AcDbEntity
8
0
100
AcDbCircle
10
-799.61246000751976
20
-282.76050250757248
30
0
40
1.05
210
0
220
-0
230
1
0
LWPOLYLINE
5
156
100
AcDbEntity
8
0
100
AcDbPolyline
90
4
70
1
43
0.0
10
-815.76246000751951
20
-266.73400250757254
10
-801.76246000751962
20
-266.73400250757254
10
-801.76246000751962
20
-280.73400250757254
10
-815.76246000751951
20
-280.73400250757254
0
LWPOLYLINE
5
157
100
AcDbEntity
8
0
100
AcDbPolyline
90
4
70
1
43
0.0
10
-834.81246000751958
20
-262.35250250757252
10
-820.81246000751958
20
-262.35250250757252
10
-820.81246000751958
20
-276.35250250757252
10
-834.81246000751958
20
-276.35250250757252
0
CIRCLE
5
158
100
AcDbEntity
8
0
100
AcDbCircle
10
-865.10246000751954
20
-221.04050250757254
30
0
40
1.05
210
0
220
-0
230
1
0
LWPOLYLINE
5
159
100
AcDbEntity
8
0
100
AcDbPolyline
90
4
70
1
43
0.0
10
-853.86246000751953
20
-224.25250350757253
10
-839.86246000751964
20
-224.25250350757253
10
-839.86246000751964
20
-238.2525035075725
10
-853.86246000751953
20
-238.2525035075725
0
LWPOLYLINE
5
160
100
AcDbEntity
8
0
100
AcDbPolyline
90
4
70
1
43
0.0
10
-892.07701500751966
20
-217.99498350757256
10
-878.55405400751943
20
-221.6184505075725
10
-882.17752100751966
20
-235.14141150757254
10
-895.70048200751955
20
-231.51794450757251
0
LWPOLYLINE
5
161
100
AcDbEntity
8
0
100
AcDbPolyline
90
4
70
1
43
0.0
10
-896.99739900751956
20
-236.39359350757252
10
-883.47443800751967
20
-240.01706050757249
10
-887.09790500751956
20
-253.54002150757253
10
-900.62086600751968
20
-249.9165545075725
0
LWPOLYLINE
5
162
100
AcDbEntity
8
0
100
AcDbPolyline
90
4
70
1
43
0.0
10
-928.86739900751968
20
-208.13359350757253
10
-915.34443800751978
20
-211.75706050757253
10
-918.96790500751968
20
-225.28002150757254
10
-932.49086600751957
20
-221.65655450757248
0
LWPOLYLINE
5
163
100
AcDbEntity
8
0
100
AcDbPolyline
90
4
70
1
43
0.0
10
-911.11790200751955
20
-215.4544805075725
10
-897.59494100751965
20
-219.07794750757256
10
-901.21840800751954
20
-232.60090850757251
10
-914.74136900751978
20
-228.97744150757256
0
LWPOLYLINE
5
164
100
AcDbEntity
8
0
100
AcDbPolyline
90
4
70
1
43
0.0
10
-948.61195400751967
20
-208.17607450757251
10
-935.08899300751955
20
-211.79954150757254
10
-938.71246000751967
20
-225.32250250757249
10
-952.23542100751956
20
-221.69903550757255
0
LWPOLYLINE
5
165
100
AcDbEntity
8
0
100
AcDbPolyline
90
4
70
1
43
0.0
10
-933.7979020075195
20
-226.53448050757251
10
-920.2749410075196
20
-230.15794750757252
10
-923.89840800751949
20
-243.68090850757252
10
-937.42136900751973
20
-240.05744150757252
0
LWPOLYLINE
5
166
100
AcDbEntity
8
0
100
AcDbPolyline
90
4
70
1
43
0.0
10
-916.04158400751976
20
-233.86138050757253
10
-902.51862300751952
20
-237.48484750757251
10
-906.14209000751976
20
-251.00780850757252
10
-919.66505100751965
20
-247.38434150757251
0
CIRCLE
5
167
100
AcDbEntity
8
0
100
AcDbCircle
10
-939.31246000751969
20
-240.66050250757252
30
0
40
1.05
210
0
220
-0
230
1
0
LWPOLYLINE
5
168
100
AcDbEntity
8
0
100
AcDbPolyline
90
4
70
1
43
0.0
10
-956.02701500751948
20
-235.76498350757251
10
-942.50405400751958
20
-239.38845050757251
10
-946.12752100751948
20
-252.91141150757252
10
-959.65048200751971
20
-249.28794450757252
0
LWPOLYLINE
5
169
100
AcDbEntity
8
0
100
AcDbPolyline
90
4
70
1
43
0.0
10
-853.86746000751964
20
-243.30750250757256
10
-839.86746000751964
20
-243.30750250757256
10
-839.86746000751964
20
-257.30750250757251
10
-853.86746000751964
20
-257.30750250757251
0
LWPOLYLINE
5
170
100
AcDbEntity
8
0
100
AcDbPolyline
90
4
70
1
43
0.0
10
-901.92790200751972
20
-254.79448050757253
10
-888.40494100751948
20
-258.41794750757253
10
-892.02840800751972
20
-271.94090850757254
10
-905.55136900751961
20
-268.31744150757254
0
LWPOLYLINE
5
171
100
AcDbEntity
8
0
100
AcDbPolyline
90
4
70
1
43
0.0
10
-853.85746000751965
20
-262.33750250757254
10
-839.85746000751965
20
-262.33750250757254
10
-839.85746000751965
20
-276.33750250757254
10
-853.85746000751965
20
-276.33750250757254
0
CIRCLE
5
172
100
AcDbEntity
8
0
100
AcDbCircle
10
-872.47246000751966
20
-275.68050250757256
30
0
40
1.05
210
0
220
-0
230
1
0
CIRCLE
5
173
100
AcDbEntity
8
0
100
AcDbCircle
10
-904.91246000751971
20
-253.61050250757251
30
0
40
1.05
210
0
220
-0
230
1
0
LWPOLYLINE
5
174
100
AcDbEntity
8
0
100
AcDbPolyline
90
4
70
1
43
0.0
10
-920.97208700751958
20
-252.26226750757252
10
-907.44912600751968
20
-255.88573450757252
10
-911.07259300751957
20
-269.40869550757253
10
-924.59555400751947
20
-265.78522850757253
0
LWPOLYLINE
5
175
100
AcDbEntity
8
0
100
AcDbPolyline
90
4
70
1
43
0.0
10
-938.73200900751954
20
-244.93964950757254
10
-925.20904800751964
20
-248.56311650757252
10
-928.83251500751953
20
-262.08607750757255
10
-942.35547600751966
20
-258.46261050757255
0
LWPOLYLINE
5
176
100
AcDbEntity
8
0
100
AcDbPolyline
90
34
70
1
43
0.0
10
-726.3124600075198
20
-198.14050250761542
10
-720.31246000751992
20
-198.14050250759777
10
-720.31246000751912
20
-195.0205025075725
42
-0.41421399999257069
10
-718.31246000751958
20
-193.02050250762306
10
-712.62260000751951
20
-193.02050250757253
42
0.41422600230129186
10
-710.62260000751894
20
-191.02036250772881
10
-710.62437600751969
20
-165.71302150757251
42
0.19904148284622139
10
-710.91779500749101
20
-165.00551650765803
10
-729.70737700751954
20
-146.24387950757253
42
0.41423199583998577
10
-732.53589100752151
20
-146.24578850757905
10
-744.55062200751001
20
-158.27750150758223
42
-0.13241500724982305
10
-746.35456500751479
20
-159.31723850759053
10
-759.94564000750779
20
-162.92641750761675
42
-0.065001755199493735
10
-760.97266100751949
20
-163.06040950761871
10
-846.96907300751957
20
-163.0521665076125
42
-0.06717549237411144
10
-847.49925100752944
20
-162.98055950760846
10
-931.21280700751959
20
-139.95638750757252
42
0.41613074339370515
10
-933.67500500753306
20
-141.36702950773423
10
-962.99602600751973
20
-250.76875550757251
42
0.34951164805918483
10
-962.00129500751791
20
-253.0533865075754
10
-937.29855400751967
20
-266.15484150757254
10
-937.1223350075195
20
-266.2375765075725
10
-919.93166400751966
20
-273.3092605075725
42
0.067316457212452455
10
-919.41300700752072
20
-273.44492450757627
10
-789.95956900751958
20
-289.23890650757249
10
-770.68084700751967
20
-286.73419050757252
10
-770.62398000751955
20
-286.72762850757249
10
-743.17048000751947
20
-283.9571605075725
42
0.38486304935636656
10
-741.37129100751986
20
-281.96859450758575
10
-741.36246000752351
20
-261.9005025075769
42
-0.43712567130107033
10
-741.36745400751556
20
-259.08512450757684
10
-741.36745400751909
20
-202.94050250757252
42
-0.41421399999257069
10
-739.36745400751965
20
-200.94050250762308
10
-726.31246000751162
20
-200.94050250758437
0
ENDSEC
0
SECTION
2
OBJECTS
0
DICTIONARY
5
C
100
AcDbDictionary
3
ACAD_GROUP
350
D
3
ACAD_MLINESTYLE
350
17
0
DICTIONARY
5
D
100
AcDbDictionary
0
DICTIONARY
5
1A
330
C
100
AcDbDictionary
0
DICTIONARY
5
17
100
AcDbDictionary
0
ENDSEC
0
EOF
